<svg width="276" height="80" viewBox="0 0 276 80" fill="none" xmlns="http://www.w3.org/2000/svg">
<path d="M37.1392 36.016C36.222 38.2302 35.75 40.6034 35.75 43C35.75 47.8402 37.6728 52.4822 41.0953 55.9047C44.5178 59.3272 49.1598 61.25 54 61.25C58.8402 61.25 63.4822 59.3272 66.9047 55.9047C70.3272 52.4822 72.25 47.8402 72.25 43C72.25 40.6034 71.778 38.2302 70.8608 36.016C69.9437 33.8018 68.5994 31.79 66.9047 30.0953C65.21 28.4006 63.1982 27.0563 60.984 26.1392C58.7698 25.2221 56.3966 24.75 54 24.75C51.6034 24.75 49.2302 25.2221 47.016 26.1392C44.8018 27.0563 42.79 28.4006 41.0953 30.0953C39.4006 31.79 38.0563 33.8018 37.1392 36.016ZM44.9968 53.3948C42.5698 51.2933 40.9567 48.4111 40.4318 45.25H48.1658C48.6084 46.3993 49.3813 47.3936 50.3888 48.1065C51.4447 48.8537 52.7064 49.2549 54 49.2549C55.2936 49.2549 56.5553 48.8537 57.6112 48.1065C58.6187 47.3936 59.3916 46.3993 59.8342 45.25H67.5682C67.0433 48.4111 65.4302 51.2933 63.0032 53.3948C60.5032 55.5594 57.3069 56.7509 54 56.7509C50.6931 56.7509 47.4968 55.5594 44.9968 53.3948ZM63.007 32.5972C65.4345 34.7012 67.0465 37.5864 67.5685 40.75H59.8342C59.3916 39.6007 58.6187 38.6064 57.6112 37.8935C56.5553 37.1463 55.2936 36.7451 54 36.7451C52.7064 36.7451 51.4447 37.1463 50.3888 37.8935C49.3813 38.6064 48.6084 39.6007 48.1658 40.75H40.4315C40.9535 37.5864 42.5655 34.7012 44.993 32.5972C47.4933 30.4301 50.6912 29.2371 54 29.2371C57.3088 29.2371 60.5067 30.4301 63.007 32.5972ZM55.2374 44.2374C54.9092 44.5656 54.4641 44.75 54 44.75C53.5359 44.75 53.0908 44.5656 52.7626 44.2374C52.4344 43.9092 52.25 43.4641 52.25 43C52.25 42.5359 52.4344 42.0908 52.7626 41.7626C53.0908 41.4344 53.5359 41.25 54 41.25C54.4641 41.25 54.9092 41.4344 55.2374 41.7626C55.5656 42.0908 55.75 42.5359 55.75 43C55.75 43.4641 55.5656 43.9092 55.2374 44.2374Z" fill="black" stroke="black" stroke-width="0.5"/>
<path d="M109.803 52.824C109.803 56.3227 108.651 58.904 106.347 60.568C104.086 62.1893 101.824 63 99.563 63H88.811C86.5497 63 84.3523 62.1893 82.219 60.568C81.195 59.7147 80.4057 58.648 79.851 57.368C79.2963 56.0453 79.019 54.5307 79.019 52.824V34.584C79.019 31.128 80.0857 28.568 82.219 26.904C83.2857 26.136 84.3737 25.5387 85.483 25.112C86.635 24.6427 87.7443 24.408 88.811 24.408H99.563C100.587 24.408 101.718 24.6213 102.955 25.048C104.192 25.432 105.344 25.9653 106.411 26.648C107.435 27.3733 108.246 28.376 108.843 29.656C109.483 30.936 109.803 32.4507 109.803 34.2V37.4C109.803 39.448 108.63 40.472 106.283 40.472C103.936 40.472 102.763 39.448 102.763 37.4V34.648C102.763 33.5813 102.422 32.6213 101.739 31.768C101.099 30.872 99.9897 30.424 98.411 30.424H90.411C88.8323 30.424 87.7017 30.872 87.019 31.768C86.379 32.6213 86.059 33.5813 86.059 34.648V52.76C86.059 53.784 86.379 54.744 87.019 55.64C87.7017 56.536 88.8323 56.984 90.411 56.984H98.411C99.9897 56.984 101.099 56.536 101.739 55.64C102.422 54.744 102.763 53.784 102.763 52.76V49.816C102.763 47.8107 103.936 46.808 106.283 46.808C108.63 46.808 109.803 47.8107 109.803 49.816V52.824ZM130.696 63C129.373 63 128.114 62.8293 126.919 62.488C125.725 62.104 124.573 61.5707 123.463 60.888V60.952C121.373 59.6293 120.327 57.1973 120.327 53.656V50.52C120.327 48.7707 120.626 47.256 121.223 45.976C121.863 44.6533 122.738 43.608 123.847 42.84H123.783C124.85 42.1147 125.981 41.5813 127.175 41.24C128.37 40.856 129.522 40.664 130.632 40.664H144.776V34.712C144.776 33.6453 144.434 32.6853 143.752 31.832C143.112 30.936 142.002 30.488 140.424 30.488H132.935C131.314 30.488 130.183 30.8933 129.543 31.704C128.946 32.472 128.648 33.3893 128.648 34.456V34.968C128.648 37.1867 127.453 38.296 125.063 38.296C122.674 38.296 121.479 37.1867 121.479 34.968V34.392C121.479 32.6427 121.778 31.1707 122.375 29.976C123.015 28.7813 123.869 27.7787 124.935 26.968H124.872C125.981 26.2427 127.133 25.6453 128.327 25.176C129.565 24.7067 130.738 24.472 131.847 24.472H141.576C142.642 24.472 143.773 24.7067 144.968 25.176C146.205 25.6453 147.357 26.2427 148.424 26.968H148.36C149.469 27.7787 150.322 28.8453 150.92 30.168C151.517 31.448 151.816 32.9413 151.816 34.648V60.312C151.816 62.36 150.642 63.384 148.295 63.384C147.826 63.384 147.378 63.3627 146.951 63.32C146.567 63.2773 146.205 63.1707 145.864 63C145.565 62.7867 145.309 62.5093 145.096 62.168C144.925 61.784 144.84 61.2933 144.84 60.696L144.776 46.68H131.847C130.909 46.68 130.183 46.7867 129.672 47C129.159 47.2133 128.754 47.5547 128.455 48.024C128.114 48.7493 127.858 49.3253 127.688 49.752C127.559 50.136 127.495 50.584 127.495 51.096V53.592C127.495 54.7013 127.815 55.5547 128.455 56.152C129.138 56.7067 130.29 56.984 131.911 56.984H139.08C140.658 56.984 141.448 57.9867 141.448 59.992C141.448 60.8453 141.256 61.5707 140.872 62.168C140.487 62.7227 139.89 63 139.08 63H130.696ZM187.038 30.488H174.686C172.937 30.488 171.785 31 171.23 32.024C170.633 32.92 170.334 33.9653 170.334 35.16V53.592C170.334 54.7013 170.675 55.5547 171.358 56.152C172.041 56.7067 173.171 56.984 174.75 56.984H181.342C182.878 56.984 183.646 57.9867 183.646 59.992C183.646 60.8453 183.454 61.5707 183.07 62.168C182.729 62.7227 182.153 63 181.342 63H173.598C170.91 63 168.521 62.3173 166.43 60.952C164.339 59.672 163.294 57.24 163.294 53.656V34.584C163.294 32.8347 163.571 31.32 164.126 30.04C164.681 28.76 165.555 27.7147 166.75 26.904C169.011 25.2827 171.273 24.472 173.534 24.472H187.038V14.872C187.038 12.824 188.211 11.8 190.558 11.8C192.905 11.8 194.078 12.824 194.078 14.872V60.312C194.078 62.36 192.905 63.384 190.558 63.384C189.662 63.384 188.851 63.2347 188.126 62.936C187.401 62.5947 187.038 61.8693 187.038 60.76V30.488ZM212.784 52.76C212.784 53.784 213.104 54.744 213.744 55.64C214.427 56.536 215.557 56.984 217.136 56.984H225.136C226.715 56.984 227.824 56.6 228.464 55.832C229.147 55.0213 229.488 54.104 229.488 53.08V52.376C229.488 50.3707 230.661 49.368 233.008 49.368C235.355 49.368 236.528 50.3707 236.528 52.376V53.144C236.528 54.936 236.229 56.408 235.632 57.56C235.077 58.712 234.224 59.7147 233.072 60.568C230.811 62.1893 228.549 63 226.288 63H215.536C213.275 63 211.077 62.1893 208.944 60.568C207.92 59.7147 207.131 58.648 206.576 57.368C206.021 56.0453 205.744 54.5307 205.744 52.824V34.584C205.744 31.128 206.811 28.568 208.944 26.904C210.011 26.136 211.099 25.5387 212.208 25.112C213.36 24.6427 214.469 24.408 215.536 24.408H226.288C227.312 24.408 228.443 24.6213 229.68 25.048C230.917 25.432 232.069 25.9653 233.136 26.648C234.16 27.3733 234.971 28.376 235.568 29.656C236.208 30.936 236.528 32.4507 236.528 34.2V42.84C236.528 43.8213 236.229 44.696 235.632 45.464C235.077 46.232 234.032 46.616 232.496 46.616H218.672C217.136 46.616 216.325 45.6133 216.24 43.608C216.24 41.6027 217.051 40.6 218.672 40.6H229.552L229.488 34.648C229.488 33.5813 229.147 32.6213 228.464 31.768C227.824 30.872 226.715 30.424 225.136 30.424H217.136C215.557 30.424 214.427 30.872 213.744 31.768C213.104 32.6213 212.784 33.5813 212.784 34.648V52.76ZM263.817 43.416L274.569 58.584C274.868 59.0107 275.017 59.48 275.017 59.992C275.017 60.888 274.377 61.784 273.097 62.68C272.287 63.2347 271.519 63.512 270.793 63.512C270.367 63.512 269.919 63.3627 269.449 63.064C269.023 62.7653 268.617 62.3813 268.233 61.912L259.465 49.56C258.825 50.456 258.121 51.4373 257.353 52.504C256.628 53.5707 255.881 54.6587 255.113 55.768C254.345 56.8347 253.577 57.9013 252.809 58.968C252.084 60.0347 251.401 61.016 250.761 61.912C249.951 62.9787 249.076 63.512 248.137 63.512C247.327 63.512 246.559 63.2347 245.833 62.68C245.236 62.2533 244.767 61.848 244.425 61.464C244.127 61.0373 243.977 60.568 243.977 60.056C243.977 59.544 244.148 59.0533 244.489 58.584L255.113 43.416C253.535 41.1547 251.871 38.7867 250.121 36.312C248.372 33.8373 246.708 31.448 245.129 29.144C244.959 28.8453 244.788 28.5253 244.617 28.184C244.489 27.8 244.425 27.5013 244.425 27.288C244.425 26.392 245.023 25.56 246.217 24.792H246.153C246.58 24.5787 246.964 24.408 247.305 24.28C247.689 24.1093 248.052 24.024 248.393 24.024C249.545 24.024 250.548 24.6427 251.401 25.88L259.465 37.336L267.529 25.88C268.425 24.6427 269.428 24.024 270.537 24.024C270.921 24.024 271.284 24.1093 271.625 24.28C271.967 24.408 272.351 24.5787 272.777 24.792H272.713C273.951 25.56 274.569 26.392 274.569 27.288C274.569 27.8 274.313 28.4187 273.801 29.144L263.817 43.416Z" fill="black"/>
<path d="M13.111 60.312C13.111 62.36 11.8523 63.384 9.335 63.384C6.81767 63.384 5.559 62.36 5.559 60.312V16.024C5.559 15.0427 5.83633 14.168 6.391 13.4C6.94567 12.5893 8.01233 12.184 9.591 12.184H31.351C32.887 12.184 33.6977 13.2507 33.783 15.384C33.8683 17.56 33.0577 18.648 31.351 18.648H13.111V60.312ZM29.495 36.568C29.495 37.2933 29.3457 37.9973 29.047 38.68C28.791 39.32 28.407 39.8747 27.895 40.344C27.4257 40.8133 26.871 41.1973 26.231 41.496C25.591 41.752 24.887 41.88 24.119 41.88C22.6683 41.88 21.431 41.368 20.407 40.344C19.383 39.32 18.871 38.0613 18.871 36.568C18.871 35.0747 19.383 33.816 20.407 32.792C21.431 31.768 22.6683 31.256 24.119 31.256C24.887 31.256 25.591 31.4053 26.231 31.704C26.871 31.96 27.4257 32.344 27.895 32.856C28.407 33.3253 28.791 33.88 29.047 34.52C29.3457 35.16 29.495 35.8427 29.495 36.568Z" fill="black"/>
</svg>
